<svg xmlns="http://www.w3.org/2000/svg" viewBox="0 0 108 49" width="108" height="49">
	<defs>
		<linearGradient id="grd1" gradientUnits="userSpaceOnUse"  x1="106.577" y1="24.895" x2="2" y2="24.895">
			<stop offset="0" stop-color="#43cbd5"  />
			<stop offset="1" stop-color="#7d81ed"  />
		</linearGradient>
	</defs>
	<style>
		tspan { white-space:pre }
		.shp0 { mix-blend-mode: luminosity;fill: url(#grd1) } 
	</style>
	<g id="Content">
		<g id="Services">
			<g id="light">
				<g id="Group 49">
					<g id="ICONS">
						<g id="Group 50">
							<path id="Forma 1" class="shp0" d="M100.56 41.18L8.02 41.18C4.7 41.18 2 38.48 2 35.15L2 7.82C2 4.49 4.7 1.79 8.02 1.79L100.56 1.79C103.88 1.79 106.58 4.49 106.58 7.82L106.58 35.15C106.58 38.48 103.88 41.18 100.56 41.18ZM8.02 4.45C6.16 4.45 4.65 5.96 4.65 7.82L4.65 35.15C4.65 37.01 6.16 38.52 8.02 38.52L100.56 38.52C102.42 38.52 103.92 37.01 103.92 35.15L103.92 7.82C103.92 5.96 102.42 4.45 100.56 4.45L8.02 4.45L8.02 4.45ZM96.87 48L11.67 48C10.94 48 10.34 47.4 10.34 46.67C10.34 45.94 10.94 45.34 11.67 45.34L96.87 45.34C97.6 45.34 98.2 45.94 98.2 46.67C98.2 47.4 97.6 48 96.87 48ZM48.98 13.48L11.36 13.48C10.63 13.48 10.03 12.89 10.03 12.15C10.03 11.42 10.63 10.82 11.36 10.82L48.98 10.82C49.72 10.82 50.31 11.42 50.31 12.15C50.31 12.89 49.72 13.48 48.98 13.48ZM96.71 13.48L59.09 13.48C58.36 13.48 57.76 12.89 57.76 12.15C57.76 11.42 58.36 10.82 59.09 10.82L96.71 10.82C97.45 10.82 98.04 11.42 98.04 12.15C98.04 12.89 97.45 13.48 96.71 13.48ZM48.98 22.75L11.36 22.75C10.63 22.75 10.03 22.15 10.03 21.42C10.03 20.68 10.63 20.09 11.36 20.09L48.98 20.09C49.72 20.09 50.31 20.68 50.31 21.42C50.31 22.15 49.72 22.75 48.98 22.75ZM96.71 22.75L59.09 22.75C58.36 22.75 57.76 22.15 57.76 21.42C57.76 20.68 58.36 20.09 59.09 20.09L96.71 20.09C97.45 20.09 98.04 20.68 98.04 21.42C98.04 22.15 97.45 22.75 96.71 22.75ZM48.98 32.01L11.36 32.01C10.63 32.01 10.03 31.42 10.03 30.68C10.03 29.95 10.63 29.35 11.36 29.35L48.98 29.35C49.72 29.35 50.31 29.95 50.31 30.68C50.31 31.42 49.72 32.01 48.98 32.01ZM96.71 32.01L59.09 32.01C58.36 32.01 57.76 31.42 57.76 30.68C57.76 29.95 58.36 29.35 59.09 29.35L96.71 29.35C97.45 29.35 98.04 29.95 98.04 30.68C98.04 31.42 97.45 32.01 96.71 32.01Z" />
						</g>
					</g>
				</g>
			</g>
		</g>
	</g>
</svg>