<svg xmlns="http://www.w3.org/2000/svg" viewBox="0 0 64 72" width="64" height="72">
	<defs>
		<linearGradient id="grd1" gradientUnits="userSpaceOnUse"  x1="62.217" y1="36.493" x2="2" y2="36.493">
			<stop offset="0" stop-color="#43cbd5"  />
			<stop offset="1" stop-color="#7d81ed"  />
		</linearGradient>
	</defs>
	<style>
		tspan { white-space:pre }
		.shp0 { mix-blend-mode: luminosity;fill: url(#grd1) } 
	</style>
	<g id="Content">
		<g id="Services">
			<g id="light">
				<g id="Group 49">
					<g id="ICONS">
						<g id="Group 50">
							<path id="Forma 1" class="shp0" d="M14.19 61.97C13.36 61.97 12.69 62.64 12.69 63.47L12.69 69.49C12.69 70.33 13.36 71 14.19 71C15.02 71 15.7 70.33 15.7 69.49L15.7 63.47C15.7 62.64 15.02 61.97 14.19 61.97ZM26.72 61.97C25.89 61.97 25.22 62.64 25.22 63.47L25.22 69.49C25.22 70.33 25.89 71 26.72 71C27.55 71 28.23 70.33 28.23 69.49L28.23 63.47C28.23 62.64 27.55 61.97 26.72 61.97ZM39.26 61.97C38.43 61.97 37.75 62.64 37.75 63.47L37.75 69.49C37.75 70.33 38.43 71 39.26 71C40.09 71 40.76 70.33 40.76 69.49L40.76 63.47C40.76 62.64 40.09 61.97 39.26 61.97ZM7.93 51.13C7.09 51.13 6.42 51.81 6.42 52.64L6.42 58.66C6.42 59.49 7.09 60.16 7.93 60.16C8.76 60.16 9.43 59.49 9.43 58.66L9.43 52.64C9.43 51.81 8.76 51.13 7.93 51.13ZM20.46 51.13C19.63 51.13 18.95 51.81 18.95 52.64L18.95 58.66C18.95 59.49 19.63 60.16 20.46 60.16C21.29 60.16 21.96 59.49 21.96 58.66L21.96 52.64C21.96 51.81 21.29 51.13 20.46 51.13ZM32.99 51.13C32.16 51.13 31.49 51.81 31.49 52.64L31.49 58.66C31.49 59.49 32.16 60.16 32.99 60.16C33.82 60.16 34.49 59.49 34.49 58.66L34.49 52.64C34.49 51.81 33.82 51.13 32.99 51.13ZM45.52 51.13C44.69 51.13 44.02 51.81 44.02 52.64L44.02 58.66C44.02 59.49 44.69 60.16 45.52 60.16C46.35 60.16 47.03 59.49 47.03 58.66L47.03 52.64C47.03 51.81 46.35 51.13 45.52 51.13ZM60.71 1.99C59.88 1.99 59.21 2.66 59.21 3.49L59.21 5L45.52 5C33.51 5 23.64 14.39 22.86 26.22L21.5 26.22C20.67 26.22 20 26.89 20 27.73L20 31.79C16.39 32.82 13.03 34.69 10.24 37.24C7.48 39.75 5.33 42.87 3.97 46.32L3.5 46.32C2.67 46.32 2 46.99 2 47.82C2 48.65 2.67 49.33 3.5 49.33L5.01 49.33L48.44 49.33L49.94 49.33C50.77 49.33 51.45 48.65 51.45 47.82C51.45 46.99 50.77 46.32 49.94 46.32L49.48 46.32C48.12 42.87 45.96 39.75 43.21 37.24C40.42 34.69 37.06 32.82 33.45 31.79L33.45 27.73C33.45 26.89 32.78 26.22 31.95 26.22L30.71 26.22C31.47 18.71 37.82 12.82 45.52 12.82L59.21 12.82L59.21 14.33C59.21 15.16 59.88 15.83 60.71 15.83C61.54 15.83 62.22 15.16 62.22 14.33L62.22 3.49C62.22 2.66 61.54 1.99 60.71 1.99ZM30.44 29.23L30.44 31.49L23 31.49L23 29.23L30.44 29.23ZM46.21 46.32L7.24 46.32C9.95 40.5 15.24 36.07 21.49 34.5L31.96 34.5C38.21 36.07 43.5 40.5 46.21 46.32ZM45.52 9.81C36.16 9.81 28.46 17.05 27.69 26.22L25.88 26.22C26.65 16.05 35.17 8.01 45.52 8.01L59.21 8.01L59.21 9.81L45.52 9.81Z" />
						</g>
					</g>
				</g>
			</g>
		</g>
	</g>
</svg>