<svg xmlns="http://www.w3.org/2000/svg" viewBox="0 0 17 16" width="17" height="16">
	<style>
		tspan { white-space:pre }
		.shp0 { fill: #000000 } 
	</style>
	<g id="Footer">
		<g id="social">
			<path id="dribbble" class="shp0" d="M8.01 1.01C4.14 1.01 1.01 4.14 1.01 8C1.01 11.86 4.14 14.99 8.01 14.99C11.87 14.99 15.01 11.86 15.01 8C15.01 4.14 11.87 1.01 8.01 1.01ZM12.45 4.23C13.24 5.15 13.74 6.33 13.82 7.61C12.56 7.55 11.05 7.55 9.84 7.66C9.69 7.27 9.53 6.89 9.36 6.53C10.76 5.93 11.84 5.13 12.45 4.23ZM8.01 2.17C9.42 2.17 10.72 2.68 11.73 3.51C11.1 4.32 10.1 5.01 8.86 5.54C8.18 4.29 7.4 3.21 6.57 2.36C7.03 2.24 7.51 2.17 8.01 2.17ZM5.37 2.81C6.21 3.64 7 4.71 7.69 5.96C6.38 6.36 4.87 6.59 3.26 6.59C2.95 6.59 2.65 6.58 2.36 6.56C2.78 4.92 3.89 3.56 5.37 2.81ZM2.18 7.72C2.52 7.74 2.85 7.74 3.19 7.74C5.03 7.72 6.74 7.43 8.21 6.96C8.35 7.25 8.48 7.54 8.6 7.85C8.4 7.89 8.22 7.94 8.08 8C6.07 8.84 4.49 10.2 3.63 11.85C2.73 10.82 2.17 9.48 2.17 8C2.17 7.91 2.18 7.81 2.18 7.72ZM8.01 13.83C6.66 13.83 5.42 13.37 4.43 12.6C5.21 11.06 6.59 9.79 8.34 9C8.51 8.92 8.73 8.86 8.98 8.81C9.18 9.38 9.37 9.98 9.53 10.6C9.79 11.57 9.96 12.52 10.07 13.44C9.43 13.69 8.74 13.83 8.01 13.83ZM11.16 12.9C11.05 11.96 10.87 11 10.62 10.02C10.49 9.55 10.35 9.09 10.2 8.64C11.34 8.55 12.71 8.56 13.8 8.64C13.61 10.43 12.6 11.97 11.16 12.9Z" />
		</g>
	</g>
</svg>