<svg xmlns="http://www.w3.org/2000/svg" viewBox="0 0 73 66" width="73" height="66">
	<defs>
		<linearGradient id="grd1" gradientUnits="userSpaceOnUse"  x1="71.4" y1="33.339" x2="1.519" y2="33.339">
			<stop offset="0" stop-color="#43cbd5"  />
			<stop offset="1" stop-color="#7d81ed"  />
		</linearGradient>
	</defs>
	<style>
		tspan { white-space:pre }
		.shp0 { mix-blend-mode: luminosity;fill: url(#grd1) } 
	</style>
	<g id="Content">
		<g id="Services">
			<g id="light">
				<g id="Group 49">
					<g id="ICONS">
						<g id="Group 50">
							<path id="Forma 1" class="shp0" d="M14.46 42.88C14.46 42.1 15.09 41.46 15.88 41.46L16.23 41.46C17.01 41.46 17.65 42.1 17.65 42.88C17.65 43.67 17.01 44.3 16.23 44.3L15.88 44.3C15.09 44.3 14.46 43.67 14.46 42.88ZM15.88 39.31L16.23 39.31C17.01 39.31 17.65 38.68 17.65 37.89C17.65 37.1 17.01 36.47 16.23 36.47L15.88 36.47C15.09 36.47 14.46 37.1 14.46 37.89C14.46 38.68 15.09 39.31 15.88 39.31ZM11.78 39.31L12.14 39.31C12.92 39.31 13.56 38.68 13.56 37.89C13.56 37.1 12.92 36.47 12.14 36.47L11.78 36.47C11 36.47 10.36 37.1 10.36 37.89C10.36 38.68 11 39.31 11.78 39.31ZM15.88 34.23L16.23 34.23C17.01 34.23 17.65 33.59 17.65 32.81C17.65 32.02 17.01 31.38 16.23 31.38L15.88 31.38C15.09 31.38 14.46 32.02 14.46 32.81C14.46 33.59 15.09 34.23 15.88 34.23ZM14.66 50.84L13.38 50.84L13.38 49.56C13.38 48.77 12.75 48.14 11.96 48.14C11.18 48.14 10.54 48.77 10.54 49.56L10.54 50.84L9.26 50.84C8.47 50.84 7.84 51.48 7.84 52.26C7.84 53.05 8.47 53.68 9.26 53.68L10.54 53.68L10.54 54.97C10.54 55.75 11.18 56.39 11.96 56.39C12.75 56.39 13.38 55.75 13.38 54.97L13.38 53.68L14.66 53.68C15.45 53.68 16.09 53.05 16.09 52.26C16.09 51.48 15.45 50.84 14.66 50.84ZM11.78 44.3L12.14 44.3C12.92 44.3 13.56 43.67 13.56 42.88C13.56 42.1 12.92 41.46 12.14 41.46L11.78 41.46C11 41.46 10.36 42.1 10.36 42.88C10.36 43.67 11 44.3 11.78 44.3ZM71.4 3.13L71.4 43.93C71.4 44.71 70.76 45.35 69.98 45.35L40.45 45.35L40.45 50.32L49.58 50.32C50.37 50.32 51 50.95 51 51.74C51 52.53 50.37 53.16 49.58 53.16L39.06 53.16C39.04 53.16 39.03 53.16 39.02 53.16C39.01 53.16 39 53.16 38.99 53.16L28.46 53.16C27.68 53.16 27.04 52.53 27.04 51.74C27.04 50.95 27.68 50.32 28.46 50.32L37.6 50.32L37.6 45.35L25.49 45.35C24.71 45.35 24.07 44.71 24.07 43.93C24.07 43.14 24.71 42.5 25.49 42.5L68.56 42.5L68.56 38.96L27 38.96C26.22 38.96 25.58 38.33 25.58 37.54C25.58 36.76 26.22 36.12 27 36.12L68.56 36.12L68.56 10.94L9.49 10.94L9.49 13.9C9.49 14.68 8.85 15.32 8.07 15.32C7.28 15.32 6.65 14.68 6.65 13.9L6.65 3.13C6.65 2.35 7.28 1.71 8.07 1.71L69.98 1.71C70.76 1.71 71.4 2.35 71.4 3.13ZM68.56 4.55L9.49 4.55L9.49 8.09L68.56 8.09L68.56 4.55ZM7.69 44.3L8.05 44.3C8.83 44.3 9.47 43.67 9.47 42.88C9.47 42.1 8.83 41.46 8.05 41.46L7.69 41.46C6.91 41.46 6.27 42.1 6.27 42.88C6.27 43.67 6.91 44.3 7.69 44.3ZM10.36 32.81C10.36 33.59 11 34.23 11.78 34.23L12.14 34.23C12.92 34.23 13.56 33.59 13.56 32.81C13.56 32.02 12.92 31.38 12.14 31.38L11.78 31.38C11 31.38 10.36 32.02 10.36 32.81ZM7.69 39.31L8.05 39.31C8.83 39.31 9.47 38.68 9.47 37.89C9.47 37.1 8.83 36.47 8.05 36.47L7.69 36.47C6.91 36.47 6.27 37.1 6.27 37.89C6.27 38.68 6.91 39.31 7.69 39.31ZM22.4 18.41L22.4 63.55C22.4 64.33 21.77 64.97 20.98 64.97L2.94 64.97C2.16 64.97 1.52 64.33 1.52 63.55L1.52 18.41C1.52 17.62 2.16 16.99 2.94 16.99L20.98 16.99C21.77 16.99 22.4 17.62 22.4 18.41ZM19.56 19.83L4.36 19.83L4.36 62.12L19.56 62.12L19.56 19.83ZM7.69 34.23L8.05 34.23C8.83 34.23 9.47 33.59 9.47 32.81C9.47 32.02 8.83 31.38 8.05 31.38L7.69 31.38C6.91 31.38 6.27 32.02 6.27 32.81C6.27 33.59 6.91 34.23 7.69 34.23ZM7.69 25.01L9.46 25.01C10.24 25.01 10.88 24.38 10.88 23.59C10.88 22.81 10.24 22.17 9.46 22.17L7.69 22.17C6.91 22.17 6.27 22.81 6.27 23.59C6.27 24.38 6.91 25.01 7.69 25.01Z" />
						</g>
					</g>
				</g>
			</g>
		</g>
	</g>
</svg>