<svg xmlns="http://www.w3.org/2000/svg" viewBox="0 0 19 19" width="19" height="19">
	<style>
		tspan { white-space:pre }
		.shp0 { fill: #000000 } 
	</style>
	<g id="Footer">
		<g id="social">
			<path id="instagram" class="shp0" d="M3.92 2L15.08 2C16.13 2 17 2.78 17 3.92L17 15.07C17 16.22 16.13 17 15.08 17L3.92 17C2.87 17 2 16.22 2 15.07L2 3.92C2 2.78 2.87 2 3.92 2L3.92 2ZM12.93 3.67C12.56 3.67 12.25 3.97 12.25 4.34L12.25 5.96C12.25 6.33 12.56 6.63 12.93 6.63L14.62 6.63C14.99 6.63 15.3 6.33 15.3 5.96L15.3 4.34C15.3 3.97 14.99 3.67 14.62 3.67L12.93 3.67L12.93 3.67ZM15.3 8.34L13.98 8.34C14.11 8.75 14.18 9.18 14.18 9.63C14.18 12.13 12.09 14.15 9.51 14.15C6.94 14.15 4.85 12.13 4.85 9.63C4.85 9.18 4.92 8.75 5.04 8.34L3.67 8.34L3.67 14.68C3.67 15.01 3.93 15.28 4.26 15.28L14.71 15.28C15.04 15.28 15.31 15.01 15.31 14.68L15.31 8.34L15.3 8.34ZM9.51 6.55C7.85 6.55 6.5 7.85 6.5 9.47C6.5 11.08 7.85 12.39 9.51 12.39C11.18 12.39 12.53 11.08 12.53 9.47C12.53 7.85 11.18 6.55 9.51 6.55Z" />
		</g>
	</g>
</svg>