<svg xmlns="http://www.w3.org/2000/svg" viewBox="0 0 15 15" width="15" height="15">
	<style>
		tspan { white-space:pre }
		.shp0 { fill: #000000 } 
	</style>
	<g id="Footer">
		<g id="social">
			<path id="invision" class="shp0" d="M3.73 13.01L3.73 4.91L1.16 4.91L1.16 13.01L3.73 13.01L3.73 13.01ZM2.44 3.8C3.34 3.8 3.9 3.18 3.9 2.41C3.88 1.61 3.34 1.01 2.46 1.01C1.58 1.01 1.01 1.61 1.01 2.41C1.01 3.18 1.56 3.8 2.43 3.8L2.44 3.8L2.44 3.8ZM5.15 13.01L7.73 13.01L7.73 8.49C7.73 8.24 7.74 8 7.81 7.83C8 7.34 8.42 6.84 9.13 6.84C10.06 6.84 10.43 7.59 10.43 8.67L10.43 13.01L13.01 13.01L13.01 8.36C13.01 5.88 11.74 4.72 10.04 4.72C8.66 4.72 8.05 5.53 7.71 6.08L7.73 6.08L7.73 4.91L5.15 4.91C5.19 5.67 5.15 13.01 5.15 13.01L5.15 13.01Z" />
		</g>
	</g>
</svg>