<svg xmlns="http://www.w3.org/2000/svg" viewBox="0 0 62 90" width="62" height="90">
	<defs>
		<linearGradient id="grd1" gradientUnits="userSpaceOnUse"  x1="60.557" y1="45.197" x2="1.343" y2="45.197">
			<stop offset="0" stop-color="#43cbd5"  />
			<stop offset="1" stop-color="#7d81ed"  />
		</linearGradient>
	</defs>
	<style>
		tspan { white-space:pre }
		.shp0 { mix-blend-mode: luminosity;fill: url(#grd1) } 
	</style>
	<g id="Content">
		<g id="Services">
			<g id="light">
				<g id="Group 49">
					<g id="ICONS">
						<g id="Group 50">
							<path id="Forma 1" class="shp0" d="M12.95 3.01L1.96 10.23C1.33 10.65 1.15 11.5 1.57 12.14C1.83 12.54 2.27 12.76 2.72 12.76C2.98 12.76 3.24 12.69 3.48 12.53L14.46 5.31C15.1 4.9 15.28 4.04 14.86 3.41C14.44 2.77 13.58 2.6 12.95 3.01ZM18.6 4.6L18.6 2.77C18.6 2.01 17.99 1.39 17.23 1.39C16.46 1.39 15.85 2.01 15.85 2.77L15.85 4.6C15.85 5.36 16.46 5.98 17.23 5.98C17.99 5.98 18.6 5.36 18.6 4.6ZM60.56 16.94C60.56 8.85 53.97 2.27 45.88 2.27C38.47 2.27 32.33 7.74 31.35 14.94L25.8 14.94L22.2 3.74C21.97 3.02 21.19 2.62 20.47 2.85C19.74 3.09 19.35 3.86 19.58 4.59L22.91 14.94L19.51 14.94C18.75 14.94 18.13 15.56 18.13 16.32C18.13 16.32 18.13 55.62 18.13 55.65C18.51 62.9 24.18 68.67 31.3 69.34L31.3 80.54L20.08 86.4C19.51 86.7 19.23 87.34 19.38 87.95C19.53 88.57 20.08 89 20.71 89L44.63 89C45.27 89 45.82 88.57 45.97 87.95C46.12 87.34 45.83 86.7 45.27 86.4L34.05 80.54L34.05 69.34C41.16 68.67 46.83 62.9 47.22 55.65C47.22 55.62 47.22 31.54 47.22 31.54C54.69 30.86 60.56 24.57 60.56 16.94ZM20.89 17.7L23.79 17.7L26.18 25.13L20.89 25.13L20.89 17.7ZM39.02 86.25L26.32 86.25L32.67 82.93L39.02 86.25ZM44.46 29.9L44.46 55.54C44.11 61.77 38.94 66.65 32.67 66.65C29.9 66.65 27.34 65.69 25.32 64.09C22.77 62.06 21.08 59.01 20.89 55.54L20.89 27.89L44.46 27.89L44.46 29.9L44.46 29.9ZM44.46 25.13L29.07 25.13C29.06 25.09 29.04 25.04 29.03 25L26.68 17.7L44.46 17.7L44.46 25.13ZM47.23 28.77L47.23 16.31C47.23 15.55 46.61 14.94 45.85 14.94L36.33 14.94L34.14 14.94C35.09 9.28 40 5.02 45.88 5.02C49.27 5.02 52.34 6.45 54.51 8.74C56.55 10.87 57.8 13.76 57.8 16.94C57.8 23.05 53.17 28.1 47.23 28.77ZM38.74 9.78C38.35 10.16 38.24 10.71 38.4 11.19C38.47 11.38 38.58 11.57 38.73 11.73L40.67 13.66C40.94 13.93 41.29 14.06 41.64 14.06C41.99 14.06 42.35 13.93 42.61 13.66C43.15 13.12 43.15 12.25 42.62 11.71L40.68 9.78C40.52 9.62 40.33 9.51 40.13 9.45C39.66 9.29 39.11 9.4 38.74 9.78ZM51.12 20.21C50.58 19.67 49.71 19.67 49.17 20.21C48.64 20.75 48.64 21.62 49.17 22.16L51.11 24.09C51.37 24.36 51.73 24.49 52.08 24.49C52.43 24.49 52.78 24.36 53.05 24.09C53.59 23.55 53.59 22.68 53.05 22.14L51.12 20.21ZM51.11 9.78L49.17 11.71C48.64 12.25 48.64 13.12 49.17 13.66C49.44 13.93 49.8 14.06 50.15 14.06C50.5 14.06 50.85 13.93 51.12 13.66L53.05 11.73C53.59 11.19 53.59 10.32 53.05 9.78C52.52 9.24 51.64 9.24 51.11 9.78ZM25.73 61.81C27.48 63.63 29.87 64.58 32.84 64.63C32.85 64.63 32.86 64.63 32.86 64.63C33.61 64.63 34.23 64.03 34.24 63.28C34.25 62.52 33.65 61.89 32.89 61.88C30.69 61.84 28.95 61.18 27.73 59.91C25.54 57.65 25.58 54.1 25.58 54.07C25.58 54.06 25.58 54.04 25.58 54.03L25.58 50.69C25.58 49.93 24.97 49.32 24.21 49.32C23.53 49.32 22.97 49.81 22.85 50.45C22.84 50.53 22.83 50.61 22.83 50.69L22.83 50.69L22.83 54.02C22.82 54.41 22.82 58.77 25.73 61.81Z" />
						</g>
					</g>
				</g>
			</g>
		</g>
	</g>
</svg>