<svg xmlns="http://www.w3.org/2000/svg" viewBox="0 0 15 20" width="15" height="20">
	<style>
		tspan { white-space:pre }
		.shp0 { fill: #000000 } 
	</style>
	<g id="Footer">
		<g id="social">
			<path id="pinterest" class="shp0" d="M3.33 11.38C4.11 10.04 3.08 9.75 2.92 8.77C2.27 4.79 7.62 2.08 10.42 4.86C12.36 6.78 11.08 12.7 7.96 12.09C4.96 11.5 9.42 6.79 7.03 5.86C5.09 5.11 4.06 8.16 4.98 9.68C4.44 12.29 3.28 14.74 3.75 18.01C5.27 16.93 5.79 14.85 6.21 12.69C6.98 13.15 7.39 13.62 8.37 13.69C11.98 13.97 14 10.17 13.5 6.66C13.06 3.56 9.9 1.98 6.52 2.35C3.85 2.64 1.18 4.75 1.07 7.77C1.01 9.61 1.54 11 3.33 11.38Z" />
		</g>
	</g>
</svg>