<svg xmlns="http://www.w3.org/2000/svg" viewBox="0 0 47 79" width="47" height="79">
	<defs>
		<linearGradient id="grd1" gradientUnits="userSpaceOnUse"  x1="45.99" y1="39.61" x2="1.218" y2="39.61">
			<stop offset="0" stop-color="#43cbd5"  />
			<stop offset="1" stop-color="#7d81ed"  />
		</linearGradient>
	</defs>
	<style>
		tspan { white-space:pre }
		.shp0 { mix-blend-mode: luminosity;fill: url(#grd1) } 
	</style>
	<g id="Content">
		<g id="Services">
			<g id="light">
				<g id="Group 49">
					<g id="ICONS">
						<g id="Group 50">
							<path id="Forma 1" class="shp0" d="M40.81 1.72L6.4 1.72C3.54 1.72 1.22 4.04 1.22 6.9L1.22 68.67C1.22 71.53 3.54 73.85 6.4 73.85L6.8 73.85C6.8 74.58 6.8 75.3 6.8 76.03C6.8 77.99 9.85 77.99 9.85 76.03C9.85 75.3 9.85 74.58 9.85 73.85L37.54 73.85C37.54 74.58 37.54 75.3 37.54 76.03C37.54 77.99 40.59 77.99 40.59 76.03C40.59 75.3 40.59 74.58 40.59 73.85L40.81 73.85C43.66 73.85 45.99 71.53 45.99 68.67L45.99 6.9C45.99 4.04 43.66 1.72 40.81 1.72ZM6.4 4.77L40.81 4.77C41.98 4.77 42.94 5.73 42.94 6.9L42.94 28.43L4.27 28.43L4.27 6.9C4.27 5.73 5.22 4.77 6.4 4.77ZM40.81 70.8L6.4 70.8C5.22 70.8 4.27 69.85 4.27 68.67L4.27 31.48L42.94 31.48L42.94 68.67C42.94 69.85 41.98 70.8 40.81 70.8ZM8.3 37.1C8.3 39.86 8.3 42.62 8.3 45.38C8.3 47.34 11.35 47.35 11.35 45.38C11.35 42.62 11.35 39.86 11.35 37.1C11.35 35.14 8.3 35.14 8.3 37.1ZM11.35 23.61C11.35 20.85 11.35 18.1 11.35 15.34C11.35 13.37 8.3 13.37 8.3 15.34C8.3 18.1 8.3 20.86 8.3 23.61C8.3 25.58 11.35 25.58 11.35 23.61Z" />
						</g>
					</g>
				</g>
			</g>
		</g>
	</g>
</svg>