<svg xmlns="http://www.w3.org/2000/svg" viewBox="0 0 71 72" width="71" height="72">
	<defs>
		<linearGradient id="grd1" gradientUnits="userSpaceOnUse"  x1="69.491" y1="35.749" x2="1.007" y2="35.749">
			<stop offset="0" stop-color="#43cbd5"  />
			<stop offset="1" stop-color="#7d81ed"  />
		</linearGradient>
	</defs>
	<style>
		tspan { white-space:pre }
		.shp0 { mix-blend-mode: luminosity;fill: url(#grd1) } 
	</style>
	<g id="Content">
		<g id="Services">
			<g id="light">
				<g id="Group 49">
					<g id="ICONS">
						<g id="Group 50">
							<path id="Forma 1" class="shp0" d="M62.95 1.49L7.55 1.49C3.94 1.49 1.01 4.4 1.01 7.97L1.01 60.23C1.01 63.8 3.94 66.71 7.55 66.71L9.63 66.71C9.51 66.99 9.45 67.3 9.45 67.62C9.45 68.93 10.53 70.01 11.86 70.01L28.5 70.01C29.83 70.01 30.91 68.93 30.91 67.62C30.91 67.3 30.85 66.99 30.73 66.71L41.92 66.71C41.8 66.99 41.74 67.3 41.74 67.62C41.74 68.93 42.82 70.01 44.15 70.01L60.79 70.01C62.12 70.01 63.21 68.93 63.21 67.62C63.21 67.29 63.14 66.98 63.02 66.7C66.59 66.66 69.49 63.78 69.49 60.23L69.49 7.97C69.49 4.4 66.56 1.49 62.95 1.49ZM29.54 67.62C29.54 68.18 29.07 68.64 28.5 68.64L11.86 68.64C11.29 68.64 10.82 68.18 10.82 67.62C10.82 67.22 11.06 66.88 11.4 66.71L28.95 66.71C29.3 66.88 29.54 67.22 29.54 67.62ZM60.79 68.64L44.15 68.64C43.58 68.64 43.12 68.18 43.12 67.62C43.12 67.22 43.36 66.88 43.7 66.71L61.25 66.71C61.59 66.88 61.83 67.22 61.83 67.62C61.83 68.18 61.36 68.64 60.79 68.64ZM66.74 60.23C66.74 62.3 65.04 63.98 62.95 63.98L7.55 63.98C5.46 63.98 3.76 62.3 3.76 60.23L3.76 7.97C3.76 5.9 5.46 4.22 7.55 4.22L62.95 4.22C65.04 4.22 66.74 5.9 66.74 7.97L66.74 60.23ZM19.62 26.26C14.39 26.26 10.13 30.47 10.13 35.65C10.13 40.83 14.39 45.04 19.62 45.04C24.86 45.04 29.12 40.83 29.12 35.65C29.12 30.47 24.86 26.26 19.62 26.26ZM19.62 43.41C15.3 43.41 11.78 39.93 11.78 35.65C11.78 31.37 15.3 27.89 19.62 27.89C23.95 27.89 27.47 31.37 27.47 35.65C27.47 39.93 23.95 43.41 19.62 43.41ZM19.62 32.6C17.91 32.6 16.53 33.98 16.53 35.67C16.53 37.35 17.91 38.73 19.62 38.73C21.32 38.73 22.71 37.35 22.71 35.67C22.71 33.98 21.32 32.6 19.62 32.6ZM19.62 37.91C18.37 37.91 17.35 36.9 17.35 35.67C17.35 34.43 18.37 33.42 19.62 33.42C20.87 33.42 21.89 34.43 21.89 35.67C21.89 36.9 20.87 37.91 19.62 37.91ZM16.69 38.13C16.58 38.13 16.48 38.17 16.39 38.25L14.31 40.3C14.15 40.46 14.15 40.72 14.31 40.88C14.47 41.04 14.73 41.04 14.89 40.88L16.98 38.83C17.14 38.67 17.14 38.41 16.98 38.25C16.9 38.17 16.79 38.13 16.69 38.13ZM22.81 33.14L24.89 31.1C25.05 30.94 25.06 30.68 24.89 30.52C24.81 30.44 24.71 30.4 24.6 30.4C24.5 30.4 24.39 30.44 24.31 30.52L22.23 32.56C22.06 32.72 22.06 32.98 22.22 33.14C22.39 33.3 22.65 33.3 22.81 33.14ZM22.81 38.25C22.73 38.17 22.62 38.13 22.52 38.13C22.41 38.13 22.31 38.17 22.22 38.25C22.06 38.41 22.06 38.67 22.23 38.83L24.31 40.88C24.47 41.04 24.73 41.03 24.89 40.88C25.06 40.72 25.05 40.46 24.89 40.3L22.81 38.25ZM16.39 33.3C16.56 33.46 16.82 33.46 16.98 33.3C17.14 33.14 17.14 32.88 16.98 32.72L14.89 30.68C14.81 30.59 14.71 30.56 14.6 30.56C14.49 30.56 14.39 30.6 14.31 30.68C14.15 30.84 14.15 31.1 14.31 31.25L16.39 33.3ZM23.15 35.68C23.15 35.91 23.33 36.09 23.56 36.09C23.56 36.09 23.56 36.09 23.56 36.09L26.5 36.08C26.73 36.08 26.91 35.9 26.91 35.67C26.91 35.44 26.73 35.26 26.5 35.26L23.56 35.27C23.33 35.28 23.15 35.46 23.15 35.68ZM16.06 35.64C16.06 35.42 15.87 35.24 15.64 35.24C15.64 35.24 15.64 35.24 15.64 35.24L12.7 35.25C12.48 35.25 12.29 35.43 12.29 35.66C12.29 35.88 12.48 36.06 12.71 36.06L12.71 36.06L15.64 36.05C15.87 36.05 16.06 35.87 16.06 35.64ZM19.82 32.24C20.05 32.24 20.24 32.05 20.23 31.83L20.22 28.92C20.22 28.69 20.04 28.51 19.81 28.51C19.81 28.51 19.81 28.51 19.81 28.51C19.58 28.51 19.4 28.7 19.4 28.92L19.41 31.83C19.41 32.06 19.59 32.24 19.82 32.24ZM19.81 39.15C19.58 39.15 19.4 39.34 19.4 39.56L19.41 42.47C19.41 42.7 19.6 42.88 19.82 42.88C19.82 42.88 19.82 42.88 19.82 42.88C20.05 42.88 20.24 42.69 20.24 42.47L20.22 39.56C20.22 39.34 20.04 39.15 19.81 39.15ZM62.51 41.74L62.51 26.57C63.16 26.33 63.64 25.71 63.64 24.98L63.64 20.72C63.64 19.98 63.16 19.37 62.51 19.13L62.51 11.38C62.51 11 62.2 10.7 61.82 10.7C61.44 10.7 61.13 11 61.13 11.38L61.13 19.13C60.47 19.37 60 19.98 60 20.72L60 24.98C60 25.71 60.47 26.32 61.13 26.56L61.13 41.76C60.49 42.01 60.05 42.62 60.05 43.34L60.05 47.6C60.05 48.31 60.5 48.92 61.13 49.17L61.13 54.96C61.13 55.33 61.44 55.64 61.82 55.64C62.2 55.64 62.51 55.33 62.51 54.96L62.51 49.19C63.19 48.97 63.68 48.35 63.68 47.6L63.68 43.34C63.68 42.59 63.19 41.97 62.51 41.74ZM52.95 28.01L35.25 28.01C33.9 28.01 32.84 28.87 32.84 29.96L32.84 39.91C32.84 41 33.9 41.86 35.25 41.86L52.95 41.86C54.3 41.86 55.36 41 55.36 39.91L55.36 29.96C55.36 28.87 54.3 28.01 52.95 28.01ZM53.98 39.91C53.98 40.18 53.54 40.49 52.95 40.49L35.25 40.49C34.66 40.49 34.22 40.18 34.22 39.91L34.22 29.96C34.22 29.68 34.66 29.37 35.25 29.37L52.95 29.37C53.54 29.37 53.98 29.68 53.98 29.96L53.98 39.91Z" />
						</g>
					</g>
				</g>
			</g>
		</g>
	</g>
</svg>