<svg xmlns="http://www.w3.org/2000/svg" viewBox="0 0 64 80" width="64" height="80">
	<defs>
		<linearGradient id="grd1" gradientUnits="userSpaceOnUse"  x1="62.195" y1="40.038" x2="1.333" y2="40.038">
			<stop offset="0" stop-color="#43cbd5"  />
			<stop offset="1" stop-color="#7d81ed"  />
		</linearGradient>
	</defs>
	<style>
		tspan { white-space:pre }
		.shp0 { mix-blend-mode: luminosity;fill: url(#grd1) } 
	</style>
	<g id="Content">
		<g id="Services">
			<g id="light">
				<g id="Group 49">
					<g id="ICONS">
						<g id="Group 50">
							<path id="Forma 1" class="shp0" d="M34.91 25.83C35.32 26.54 35.07 27.45 34.36 27.85C34.13 27.98 33.87 28.04 33.63 28.04C33.11 28.04 32.61 27.77 32.34 27.29C32.05 26.78 31.59 26.38 31.04 26.18C30.28 25.88 29.89 25.03 30.18 24.26C30.48 23.5 31.33 23.11 32.1 23.41C33.28 23.86 34.28 24.72 34.91 25.83ZM62.19 73.69C62.19 76.62 59.81 79 56.89 79C54.16 79 51.91 76.94 51.61 74.3L11.92 74.3C11.61 76.94 9.36 79 6.64 79C3.71 79 1.33 76.62 1.33 73.69C1.33 71.13 3.15 68.99 5.56 68.49L5.56 39.88C5.56 39.07 6.22 38.4 7.04 38.4L9.47 38.4L9.47 33.39C9.47 32.57 10.13 31.9 10.95 31.9L13.29 31.9C13.41 25.36 17.84 19.84 23.84 18.07C23.76 17.89 23.72 17.68 23.72 17.47C23.72 16.65 24.38 15.99 25.2 15.99L30.78 15.99C31.6 15.99 32.26 16.65 32.26 17.47C32.26 17.68 32.22 17.89 32.13 18.07C34.16 18.67 36.01 19.69 37.57 21.04C37.69 20.09 38.1 19.23 38.72 18.56C37.98 17.75 37.53 16.68 37.53 15.51L37.53 8.05C37.53 5.54 39.57 3.51 42.07 3.51L42.8 3.51C42.58 3.25 42.45 2.92 42.45 2.56C42.45 1.74 43.12 1.08 43.94 1.08L47.65 1.08C48.47 1.08 49.13 1.74 49.13 2.56C49.13 2.92 49 3.25 48.79 3.51L49.52 3.51C52.02 3.51 54.06 5.54 54.06 8.05L54.06 15.51C54.06 16.68 53.61 17.75 52.87 18.56C53.61 19.37 54.06 20.44 54.06 21.62L54.06 36.11C54.06 36.93 53.87 37.71 53.53 38.4L56.49 38.4C57.31 38.4 57.97 39.07 57.97 39.88L57.97 68.49C60.38 68.99 62.19 71.13 62.19 73.69ZM40.49 24.46C41.84 26.63 42.63 29.18 42.69 31.9L45.03 31.9C45.84 31.9 46.51 32.57 46.51 33.39L46.51 38.4L47.52 38.4L48.81 38.4C50.07 38.4 51.09 37.38 51.09 36.11L51.09 21.62C51.09 20.75 50.39 20.04 49.52 20.04C48.7 20.04 48.04 19.38 48.04 18.56C48.04 17.74 48.7 17.08 49.52 17.08C50.39 17.08 51.09 16.37 51.09 15.51L51.09 8.05C51.09 7.18 50.39 6.47 49.52 6.47L42.07 6.47C41.2 6.47 40.49 7.18 40.49 8.05L40.49 15.51C40.49 16.37 41.2 17.08 42.07 17.08C42.88 17.08 43.55 17.74 43.55 18.56C43.55 19.38 42.88 20.04 42.07 20.04C41.2 20.04 40.49 20.75 40.49 21.62L40.49 24.46L40.49 24.46ZM38.5 53.8L38.5 61.54L46.04 61.54L46.04 41.37L17.49 41.37L17.49 61.54L25.03 61.54L25.03 53.8C25.03 52.98 25.69 52.31 26.51 52.31C27.33 52.31 27.99 52.98 27.99 53.8L27.99 61.54L35.53 61.54L35.53 53.8C35.53 52.98 36.2 52.31 37.02 52.31C37.83 52.31 38.5 52.98 38.5 53.8ZM16.26 31.9L39.72 31.9C39.67 29.68 39 27.61 37.87 25.86C37.8 25.77 37.74 25.68 37.69 25.59C35.58 22.48 32.02 20.44 27.99 20.44C21.61 20.44 16.4 25.56 16.26 31.9ZM12.43 38.4L16.01 38.4L43.54 38.4L43.54 34.87L12.43 34.87L12.43 38.4ZM8.99 73.69C8.99 72.48 8.07 71.48 6.89 71.35C6.89 71.35 6.88 71.35 6.88 71.35C6.8 71.34 6.72 71.34 6.64 71.34C5.35 71.34 4.3 72.39 4.3 73.69C4.3 74.98 5.35 76.03 6.64 76.03C7.93 76.03 8.99 74.98 8.99 73.69ZM55.01 68.72L55.01 41.37L49 41.37L49 63.02C49 63.84 48.34 64.51 47.52 64.51L16.01 64.51C15.19 64.51 14.53 63.84 14.53 63.02L14.53 41.37L8.52 41.37L8.52 68.72C9.78 69.2 10.8 70.14 11.4 71.33L52.13 71.33C52.72 70.14 53.75 69.2 55.01 68.72ZM59.23 73.69C59.23 72.39 58.18 71.34 56.89 71.34C55.59 71.34 54.54 72.39 54.54 73.69C54.54 74.98 55.59 76.03 56.89 76.03C58.18 76.03 59.23 74.98 59.23 73.69Z" />
						</g>
					</g>
				</g>
			</g>
		</g>
	</g>
</svg>