<svg xmlns="http://www.w3.org/2000/svg" viewBox="0 0 18 18" width="18" height="18">
	<style>
		tspan { white-space:pre }
		.shp0 { fill: #000000 } 
	</style>
	<g id="Footer">
		<g id="social">
			<path id="snapchat" fill-rule="evenodd" class="shp0" d="M9.1 1.65C9.1 1.65 12.54 1.52 13.17 4.75C13.18 6.31 13.13 7.46 13.13 7.46C13.13 7.46 13.14 8.03 13.88 7.76C14.61 7.49 14.89 7.42 15.09 7.75C15.29 8.08 15.14 8.46 14.64 8.61C14.15 8.77 13.26 8.83 13.26 9.61C13.26 10.39 14.46 12.16 16.24 12.71C16.68 12.79 16.96 12.91 16.65 13.2C16.33 13.48 15.62 13.68 15.14 13.75C14.65 13.81 14.69 13.88 14.59 14.25C14.49 14.62 14.56 14.94 14.03 14.81C13.51 14.68 12.5 14.44 11.91 14.87C11.08 15.35 10.57 16.11 9.07 16.11C7.13 16.11 6.69 14.7 5.52 14.7C4.34 14.63 3.74 15.04 3.65 14.67C3.46 14.06 3.65 13.78 2.95 13.74C2.25 13.69 1.65 13.43 1.45 13.15C1.24 12.88 1.32 12.83 1.95 12.67C3.03 12.4 3.97 11.29 4.39 10.74C4.81 10.18 5.29 9.25 4.24 8.88C3.19 8.5 2.73 8.23 3.03 7.77C3.32 7.41 3.85 7.59 4.15 7.76C4.44 7.94 5.06 7.92 4.98 7.24C4.86 6.16 4.89 4.89 4.89 4.89C4.89 4.89 5.38 1.65 9.1 1.65Z" />
		</g>
	</g>
</svg>