<svg xmlns="http://www.w3.org/2000/svg" viewBox="0 0 80 79" width="80" height="79">
	<style>
		tspan { white-space:pre }
		.shp0 { fill: #ff9900 } 
	</style>
	<g id="Content">
		<g id="testimonials">
			<g id="Group 55">
				<g id="Group 74">
					<g id="Group 54" style="mix-blend-mode: luminosity">
						<path id="Forma 1 copy 3" class="shp0" d="M49.04 25.76L43.43 25.23C43.08 25.19 42.77 24.97 42.63 24.63L40.62 19.76C40.3 18.96 39.16 18.96 38.84 19.76L36.85 24.63C36.72 24.97 36.4 25.19 36.04 25.23L30.43 25.76C29.6 25.84 29.26 26.88 29.89 27.44L34.11 31.16C34.39 31.4 34.5 31.75 34.42 32.1L33.15 37.31C32.96 38.13 33.84 38.8 34.58 38.37L39.26 35.62C39.56 35.45 39.93 35.45 40.24 35.62L44.91 38.37C45.65 38.8 46.53 38.15 46.34 37.31L45.09 32.1C45.01 31.75 45.12 31.4 45.39 31.16L49.62 27.44C50.23 26.88 49.88 25.84 49.04 25.76Z" />
					</g>
				</g>
			</g>
		</g>
	</g>
</svg>