<svg xmlns="http://www.w3.org/2000/svg" viewBox="0 0 17 14" width="17" height="14">
	<style>
		tspan { white-space:pre }
		.shp0 { fill: #000000 } 
	</style>
	<g id="Footer">
		<g id="social">
			<path id="twitter" class="shp0" d="M16 3.3C15.48 3.52 14.93 3.67 14.35 3.73C14.94 3.39 15.4 2.85 15.61 2.2C15.06 2.52 14.44 2.75 13.79 2.87C13.26 2.33 12.52 1.99 11.69 1.99C10.11 1.99 8.82 3.24 8.82 4.77C8.82 4.99 8.85 5.2 8.89 5.4C6.51 5.29 4.39 4.18 2.97 2.5C2.73 2.91 2.59 3.39 2.59 3.9C2.59 4.86 3.09 5.71 3.86 6.21C3.39 6.2 2.95 6.07 2.56 5.86C2.56 5.88 2.56 5.89 2.56 5.9C2.56 7.24 3.55 8.37 4.87 8.62C4.62 8.69 4.37 8.72 4.11 8.72C3.92 8.72 3.74 8.7 3.57 8.67C3.93 9.77 4.99 10.58 6.25 10.6C5.27 11.34 4.03 11.79 2.68 11.79C2.45 11.79 2.22 11.78 2 11.75C3.27 12.54 4.78 13 6.4 13C11.69 13 14.57 8.77 14.57 5.09C14.57 4.97 14.57 4.85 14.57 4.73C15.13 4.34 15.61 3.85 16 3.3Z" />
		</g>
	</g>
</svg>