<svg xmlns="http://www.w3.org/2000/svg" viewBox="0 0 19 21" width="19" height="21">
	<style>
		tspan { white-space:pre }
		.shp0 { fill: #333333 } 
	</style>
	<g id="Top">
		<g id="Menu">
			<path id="User" class="shp0" d="M15.29 12.36C14.56 11.53 13.64 10.93 12.56 10.55C13.32 9.65 13.7 8.35 13.7 6.68C13.7 4.24 12.59 3.06 11.66 2.49C10.67 1.89 9.68 1.87 9.57 1.87C9.46 1.87 8.45 1.89 7.43 2.48C6.45 3.04 5.28 4.23 5.28 6.68C5.28 8.64 5.87 9.84 6.52 10.57C5.47 10.95 4.57 11.55 3.85 12.36C1.49 15.03 1.96 19.03 1.98 19.2L2.07 19.99L17.07 19.99L17.17 19.2C17.19 19.03 17.65 15.03 15.29 12.36ZM7.08 6.68C7.08 5.43 7.48 4.55 8.27 4.06C8.87 3.7 9.5 3.67 9.57 3.67C9.64 3.67 10.23 3.7 10.78 4.06C11.53 4.54 11.91 5.42 11.91 6.68C11.91 8.91 11.1 10.09 9.57 10.09C8.64 10.09 7.08 9.65 7.08 6.68ZM3.72 18.19C3.72 17.07 3.91 15 5.2 13.55C6.17 12.45 7.65 11.89 9.57 11.89C11.49 11.89 12.96 12.44 13.94 13.54C15.22 14.98 15.42 17.07 15.42 18.19L3.72 18.19Z" />
		</g>
	</g>
</svg>