<svg xmlns="http://www.w3.org/2000/svg" viewBox="0 0 64 47" width="64" height="47">
	<defs>
		<linearGradient id="grd1" gradientUnits="userSpaceOnUse"  x1="62.454" y1="22.859" x2="1.724" y2="22.859">
			<stop offset="0" stop-color="#43cbd5"  />
			<stop offset="1" stop-color="#7d81ed"  />
		</linearGradient>
	</defs>
	<style>
		tspan { white-space:pre }
		.shp0 { mix-blend-mode: luminosity;fill: url(#grd1) } 
	</style>
	<g id="Content">
		<g id="Services">
			<g id="light">
				<g id="Group 49">
					<g id="ICONS">
						<g id="Group 50">
							<path id="Forma 1" class="shp0" d="M26.66 34.08C25.98 35.19 25.61 36.4 25.61 37.68C25.61 39.02 26 40.23 26.66 41.28C29.04 45.11 35.09 45.09 37.5 41.28C38.19 40.2 38.61 39.05 38.61 37.68C38.61 36.37 38.21 35.21 37.5 34.08C35.11 30.26 29.02 30.24 26.66 34.08ZM34.76 39.44C34.12 40.41 33.24 40.9 32.08 40.9C30.92 40.9 30.01 40.43 29.4 39.44C29.05 38.88 28.92 38.28 28.92 37.68C28.92 37.06 29.05 36.45 29.4 35.9C29.98 34.96 30.89 34.5 32.08 34.5C33.27 34.5 34.16 34.98 34.76 35.9C35.14 36.47 35.33 37.06 35.33 37.68C35.33 38.28 35.14 38.87 34.76 39.44ZM40.1 22.68C37.62 21.35 34.94 20.66 32.08 20.66C29.25 20.66 26.56 21.33 24.03 22.68C21.53 24.01 19.47 25.88 17.92 28.28C17.41 29.06 17.6 30.08 18.4 30.6C18.61 30.74 18.94 30.84 19.32 30.84C19.92 30.84 20.36 30.59 20.66 30.12C21.94 28.18 23.58 26.69 25.58 25.63C27.61 24.55 29.78 24.02 32.08 24.02C36.73 24.02 40.87 26.31 43.5 30.12C44.03 30.89 45.02 31.07 45.82 30.6C46.57 30.03 46.76 29.07 46.24 28.28C44.67 25.89 42.6 24.03 40.1 22.68ZM44.75 14.08C40.81 11.97 36.58 10.92 32.08 10.92C27.58 10.92 23.37 11.96 19.41 14.08C15.47 16.18 12.22 19.08 9.76 22.86C9.24 23.64 9.43 24.66 10.23 25.18C10.45 25.32 10.77 25.42 11.16 25.42C11.75 25.42 12.19 25.17 12.5 24.7C14.66 21.39 17.51 18.84 20.96 16.99C24.45 15.12 28.15 14.2 32.08 14.2C36.01 14.2 39.7 15.13 43.2 16.99C46.68 18.85 49.53 21.39 51.69 24.7C52.21 25.5 53.18 25.66 53.99 25.18C54.73 24.61 54.96 23.65 54.43 22.86C51.95 19.1 48.71 16.2 44.75 14.08ZM62.18 17.74C58.83 12.67 54.49 8.73 49.16 5.86C43.85 3.01 38.16 1.57 32.08 1.57C26.03 1.57 20.37 3 15.03 5.86C9.7 8.72 5.33 12.67 1.98 17.74C1.49 18.48 1.74 19.52 2.48 20C2.72 20.21 3.02 20.3 3.41 20.3C4 20.3 4.44 20.05 4.75 19.58C7.81 14.96 11.78 11.37 16.61 8.78C21.44 6.19 26.6 4.88 32.08 4.88C37.59 4.88 42.75 6.19 47.58 8.78C52.43 11.37 56.38 14.96 59.44 19.58C59.93 20.32 60.93 20.51 61.74 20C62.48 19.53 62.67 18.48 62.18 17.74Z" />
						</g>
					</g>
				</g>
			</g>
		</g>
	</g>
</svg>